<svg width="125" height="16" viewBox="0 0 125 16" fill="none" xmlns="http://www.w3.org/2000/svg">
<path d="M10.5735 4.91016H8.24041C8.1978 4.60831 8.1108 4.3402 7.9794 4.10582C7.84801 3.8679 7.67933 3.66548 7.47337 3.49858C7.2674 3.33168 7.02947 3.20383 6.75959 3.11506C6.49325 3.02628 6.20384 2.98189 5.89134 2.98189C5.3267 2.98189 4.83487 3.12216 4.41584 3.4027C3.9968 3.67969 3.67188 4.08452 3.44105 4.61719C3.21023 5.14631 3.09482 5.78906 3.09482 6.54545C3.09482 7.32315 3.21023 7.97656 3.44105 8.50568C3.67543 9.0348 4.00213 9.4343 4.42116 9.70419C4.8402 9.97408 5.32493 10.109 5.87536 10.109C6.1843 10.109 6.47017 10.0682 6.73295 9.98651C6.99929 9.90483 7.23544 9.78587 7.44141 9.62962C7.64737 9.46982 7.81783 9.27628 7.95277 9.04901C8.09126 8.82173 8.18715 8.5625 8.24041 8.27131L10.5735 8.28196C10.5131 8.78267 10.3622 9.26562 10.1207 9.73082C9.88281 10.1925 9.56143 10.6062 9.15661 10.9719C8.75533 11.3342 8.27592 11.6218 7.7184 11.8349C7.16442 12.0444 6.53764 12.1491 5.83807 12.1491C4.86506 12.1491 3.99503 11.929 3.22798 11.4886C2.46449 11.0483 1.8608 10.4109 1.4169 9.57635C0.976562 8.74183 0.756392 7.73153 0.756392 6.54545C0.756392 5.35582 0.980114 4.34375 1.42756 3.50923C1.875 2.67472 2.48224 2.03906 3.24929 1.60227C4.01634 1.16193 4.87926 0.941761 5.83807 0.941761C6.47017 0.941761 7.05611 1.03054 7.59588 1.2081C8.1392 1.38565 8.62038 1.64489 9.03942 1.98579C9.45845 2.32315 9.79936 2.73686 10.0621 3.22692C10.3285 3.71697 10.4989 4.27805 10.5735 4.91016ZM15.8816 12.1598C15.0542 12.1598 14.3386 11.984 13.7349 11.6325C13.1348 11.2773 12.6713 10.7837 12.3446 10.1516C12.0179 9.51598 11.8546 8.77912 11.8546 7.94105C11.8546 7.09588 12.0179 6.35724 12.3446 5.72514C12.6713 5.08949 13.1348 4.59588 13.7349 4.24432C14.3386 3.8892 15.0542 3.71165 15.8816 3.71165C16.709 3.71165 17.4228 3.8892 18.0229 4.24432C18.6266 4.59588 19.0918 5.08949 19.4185 5.72514C19.7452 6.35724 19.9086 7.09588 19.9086 7.94105C19.9086 8.77912 19.7452 9.51598 19.4185 10.1516C19.0918 10.7837 18.6266 11.2773 18.0229 11.6325C17.4228 11.984 16.709 12.1598 15.8816 12.1598ZM15.8922 10.402C16.2686 10.402 16.5829 10.2955 16.835 10.0824C17.0872 9.86577 17.2772 9.57102 17.405 9.19815C17.5364 8.82528 17.6021 8.40092 17.6021 7.92507C17.6021 7.44922 17.5364 7.02486 17.405 6.65199C17.2772 6.27912 17.0872 5.98437 16.835 5.76776C16.5829 5.55114 16.2686 5.44283 15.8922 5.44283C15.5123 5.44283 15.1926 5.55114 14.9334 5.76776C14.6777 5.98437 14.4842 6.27912 14.3528 6.65199C14.225 7.02486 14.161 7.44922 14.161 7.92507C14.161 8.40092 14.225 8.82528 14.3528 9.19815C14.4842 9.57102 14.6777 9.86577 14.9334 10.0824C15.1926 10.2955 15.5123 10.402 15.8922 10.402ZM21.3841 12V3.81818H23.5467V5.26172H23.6426C23.813 4.78232 24.0971 4.40412 24.4949 4.12713C24.8926 3.85014 25.3684 3.71165 25.9224 3.71165C26.4835 3.71165 26.9611 3.85192 27.3553 4.13246C27.7495 4.40945 28.0123 4.78587 28.1436 5.26172H28.2289C28.3958 4.79297 28.6976 4.41832 29.1344 4.13778C29.5748 3.85369 30.095 3.71165 30.6951 3.71165C31.4586 3.71165 32.0783 3.9549 32.5542 4.44141C33.0336 4.92436 33.2733 5.60973 33.2733 6.49751V12H31.0094V6.94496C31.0094 6.49041 30.8887 6.1495 30.6472 5.92223C30.4057 5.69496 30.1039 5.58132 29.7417 5.58132C29.3297 5.58132 29.0083 5.71271 28.7775 5.9755C28.5467 6.23473 28.4313 6.57741 28.4313 7.00355V12H26.2314V6.89702C26.2314 6.49574 26.1159 6.17614 25.8851 5.93821C25.6578 5.70028 25.3578 5.58132 24.9849 5.58132C24.7328 5.58132 24.5055 5.64524 24.3031 5.77308C24.1042 5.89737 23.9462 6.07315 23.829 6.30043C23.7118 6.52415 23.6532 6.78693 23.6532 7.08878V12H21.3841ZM35.0657 15.0682V3.81818H37.3029V5.19247H37.4041C37.5036 4.9723 37.6474 4.74858 37.8356 4.52131C38.0273 4.29048 38.2759 4.09872 38.5813 3.94602C38.8903 3.78977 39.2738 3.71165 39.7319 3.71165C40.3285 3.71165 40.8789 3.8679 41.3832 4.1804C41.8874 4.48935 42.2905 4.95632 42.5923 5.58132C42.8942 6.20277 43.0451 6.98224 43.0451 7.91974C43.0451 8.83239 42.8977 9.60298 42.603 10.2315C42.3118 10.8565 41.9141 11.3306 41.4098 11.6538C40.9091 11.9734 40.348 12.1332 39.7266 12.1332C39.2862 12.1332 38.9116 12.0604 38.6026 11.9148C38.2972 11.7692 38.0469 11.5863 37.8516 11.3661C37.6562 11.1424 37.5071 10.9169 37.4041 10.6896H37.3349V15.0682H35.0657ZM37.2869 7.90909C37.2869 8.3956 37.3544 8.81996 37.4893 9.18217C37.6243 9.54439 37.8196 9.8267 38.0753 10.0291C38.331 10.228 38.6417 10.3274 39.0075 10.3274C39.3768 10.3274 39.6893 10.2262 39.945 10.0238C40.2006 9.81783 40.3942 9.53374 40.5256 9.17152C40.6605 8.80575 40.728 8.38494 40.728 7.90909C40.728 7.43679 40.6623 7.02131 40.5309 6.66264C40.3995 6.30398 40.206 6.02344 39.9503 5.82102C39.6946 5.61861 39.3803 5.5174 39.0075 5.5174C38.6381 5.5174 38.3256 5.61506 38.07 5.81037C37.8178 6.00568 37.6243 6.28267 37.4893 6.64133C37.3544 7 37.2869 7.42259 37.2869 7.90909ZM46.891 12.1545C46.369 12.1545 45.9038 12.0639 45.4954 11.8828C45.087 11.6982 44.7638 11.4265 44.5259 11.0678C44.2915 10.7056 44.1744 10.2546 44.1744 9.71484C44.1744 9.2603 44.2578 8.87855 44.4247 8.5696C44.5916 8.26065 44.8189 8.01207 45.1065 7.82386C45.3942 7.63565 45.7209 7.49361 46.0866 7.39773C46.456 7.30185 46.843 7.23438 47.2479 7.19531C47.7237 7.1456 48.1072 7.09943 48.3984 7.05682C48.6896 7.01065 48.9009 6.94318 49.0323 6.8544C49.1637 6.76562 49.2294 6.63423 49.2294 6.46023V6.42827C49.2294 6.09091 49.1229 5.8299 48.9098 5.64524C48.7003 5.46058 48.402 5.36825 48.0149 5.36825C47.6065 5.36825 47.2816 5.45881 47.0401 5.63991C46.7987 5.81747 46.6388 6.04119 46.5607 6.31108L44.462 6.14062C44.5685 5.64347 44.7781 5.21378 45.0906 4.85156C45.4031 4.4858 45.8061 4.20526 46.2997 4.00994C46.7969 3.81108 47.3722 3.71165 48.0256 3.71165C48.4801 3.71165 48.9151 3.76491 49.3306 3.87145C49.7496 3.97798 50.1207 4.14311 50.4439 4.36683C50.7706 4.59055 51.0281 4.8782 51.2163 5.22976C51.4045 5.57777 51.4986 5.99503 51.4986 6.48153V12H49.3466V10.8654H49.2827C49.1513 11.1211 48.9755 11.3466 48.7553 11.5419C48.5352 11.7337 48.2706 11.8846 47.9616 11.9947C47.6527 12.1012 47.2958 12.1545 46.891 12.1545ZM47.5408 10.5884C47.8746 10.5884 48.1694 10.5227 48.4251 10.3913C48.6808 10.2564 48.8814 10.0753 49.027 9.84801C49.1726 9.62074 49.2454 9.36328 49.2454 9.07564V8.20739C49.1744 8.25355 49.0767 8.29616 48.9524 8.33523C48.8317 8.37074 48.695 8.40447 48.5423 8.43643C48.3896 8.46484 48.2369 8.49148 48.0842 8.51634C47.9315 8.53764 47.793 8.55717 47.6687 8.57493C47.4023 8.61399 47.1697 8.67614 46.9709 8.76136C46.772 8.84659 46.6175 8.962 46.5075 9.1076C46.3974 9.24964 46.3423 9.4272 46.3423 9.64027C46.3423 9.94922 46.4542 10.1854 46.6779 10.3487C46.9052 10.5085 47.1928 10.5884 47.5408 10.5884ZM55.5282 7.26989V12H53.2591V3.81818H55.4217V5.26172H55.5176C55.6987 4.78587 56.0023 4.40945 56.4284 4.13246C56.8546 3.85192 57.3713 3.71165 57.9785 3.71165C58.5467 3.71165 59.0421 3.83594 59.4647 4.08452C59.8873 4.3331 60.2157 4.68821 60.4501 5.14986C60.6845 5.60795 60.8017 6.15483 60.8017 6.79048V12H58.5325V7.19531C58.536 6.6946 58.4082 6.30398 58.149 6.02344C57.8897 5.73935 57.5328 5.5973 57.0783 5.5973C56.7729 5.5973 56.503 5.663 56.2686 5.79439C56.0378 5.92578 55.8567 6.11754 55.7253 6.36967C55.5975 6.61825 55.5318 6.91832 55.5282 7.26989ZM63.6981 15.0682C63.4104 15.0682 63.1405 15.0451 62.8884 14.9989C62.6398 14.9563 62.4339 14.9013 62.2705 14.8338L62.7819 13.1399C63.0482 13.2216 63.2879 13.266 63.501 13.2731C63.7176 13.2802 63.904 13.2305 64.0603 13.1239C64.2201 13.0174 64.3497 12.8363 64.4491 12.5806L64.5823 12.2344L61.6473 3.81818H64.0336L65.7275 9.8267H65.8128L67.5226 3.81818H69.925L66.7449 12.8842C66.5922 13.3246 66.3845 13.7081 66.1217 14.0348C65.8625 14.3651 65.534 14.619 65.1363 14.7965C64.7385 14.9776 64.2591 15.0682 63.6981 15.0682Z" fill="black"/>
<path d="M80.7542 4.91016H78.4211C78.3785 4.60831 78.2915 4.3402 78.1601 4.10582C78.0287 3.8679 77.86 3.66548 77.654 3.49858C77.4481 3.33168 77.2101 3.20383 76.9403 3.11506C76.6739 3.02628 76.3845 2.98189 76.072 2.98189C75.5074 2.98189 75.0155 3.12216 74.5965 3.4027C74.1775 3.67969 73.8525 4.08452 73.6217 4.61719C73.3909 5.14631 73.2755 5.78906 73.2755 6.54545C73.2755 7.32315 73.3909 7.97656 73.6217 8.50568C73.8561 9.0348 74.1828 9.4343 74.6018 9.70419C75.0209 9.97408 75.5056 10.109 76.056 10.109C76.365 10.109 76.6508 10.0682 76.9136 9.98651C77.18 9.90483 77.4161 9.78587 77.6221 9.62962C77.828 9.46982 77.9985 9.27628 78.1334 9.04901C78.2719 8.82173 78.3678 8.5625 78.4211 8.27131L80.7542 8.28196C80.6938 8.78267 80.5429 9.26562 80.3014 9.73082C80.0635 10.1925 79.7421 10.6062 79.3373 10.9719C78.936 11.3342 78.4566 11.6218 77.8991 11.8349C77.3451 12.0444 76.7183 12.1491 76.0187 12.1491C75.0457 12.1491 74.1757 11.929 73.4086 11.4886C72.6452 11.0483 72.0415 10.4109 71.5976 9.57635C71.1572 8.74183 70.9371 7.73153 70.9371 6.54545C70.9371 5.35582 71.1608 4.34375 71.6082 3.50923C72.0557 2.67472 72.6629 2.03906 73.43 1.60227C74.197 1.16193 75.0599 0.941761 76.0187 0.941761C76.6508 0.941761 77.2368 1.03054 77.7765 1.2081C78.3199 1.38565 78.801 1.64489 79.2201 1.98579C79.6391 2.32315 79.98 2.73686 80.2428 3.22692C80.5091 3.71697 80.6796 4.27805 80.7542 4.91016ZM87.6123 8.51634V3.81818H89.8815V12H87.7029V10.5138H87.6176C87.433 10.9933 87.1258 11.3786 86.6961 11.6697C86.27 11.9609 85.7497 12.1065 85.1354 12.1065C84.5885 12.1065 84.1073 11.9822 83.6919 11.7337C83.2764 11.4851 82.9514 11.1317 82.7171 10.6737C82.4862 10.2156 82.3691 9.6669 82.3655 9.0277V3.81818H84.6347V8.62287C84.6382 9.10582 84.7678 9.48757 85.0235 9.76811C85.2792 10.0487 85.6219 10.1889 86.0516 10.1889C86.325 10.1889 86.5807 10.1268 86.8186 10.0025C87.0566 9.87464 87.2483 9.68643 87.3939 9.43785C87.5431 9.18928 87.6159 8.8821 87.6123 8.51634ZM93.9657 1.09091V12H91.6966V1.09091H93.9657ZM100.135 3.81818V5.52273H95.2082V3.81818H100.135ZM96.3268 1.85795H98.596V9.4858C98.596 9.69531 98.6279 9.85866 98.6919 9.97585C98.7558 10.0895 98.8445 10.1694 98.9582 10.2156C99.0754 10.2617 99.2103 10.2848 99.363 10.2848C99.4695 10.2848 99.5761 10.2759 99.6826 10.2582C99.7892 10.2369 99.8708 10.2209 99.9276 10.2102L100.285 11.8988C100.171 11.9343 100.011 11.9751 99.8051 12.0213C99.5992 12.071 99.3488 12.1012 99.0541 12.1119C98.5072 12.1332 98.0278 12.0604 97.6159 11.8935C97.2075 11.7266 96.8896 11.4673 96.6624 11.1158C96.4351 10.7642 96.3232 10.3203 96.3268 9.78409V1.85795ZM106.86 8.51634V3.81818H109.13V12H106.951V10.5138H106.866C106.681 10.9933 106.374 11.3786 105.944 11.6697C105.518 11.9609 104.998 12.1065 104.383 12.1065C103.837 12.1065 103.355 11.9822 102.94 11.7337C102.524 11.4851 102.199 11.1317 101.965 10.6737C101.734 10.2156 101.617 9.6669 101.614 9.0277V3.81818H103.883V8.62287C103.886 9.10582 104.016 9.48757 104.272 9.76811C104.527 10.0487 104.87 10.1889 105.3 10.1889C105.573 10.1889 105.829 10.1268 106.067 10.0025C106.305 9.87464 106.496 9.68643 106.642 9.43785C106.791 9.18928 106.864 8.8821 106.86 8.51634ZM110.945 12V3.81818H113.145V5.24574H113.23C113.379 4.73793 113.629 4.3544 113.981 4.09517C114.332 3.83239 114.737 3.70099 115.195 3.70099C115.309 3.70099 115.431 3.7081 115.563 3.7223C115.694 3.73651 115.81 3.75604 115.909 3.78089V5.79439C115.803 5.76243 115.655 5.73402 115.467 5.70916C115.279 5.6843 115.107 5.67188 114.95 5.67188C114.616 5.67188 114.318 5.74467 114.055 5.89027C113.796 6.03232 113.59 6.23118 113.438 6.48686C113.288 6.74254 113.214 7.03729 113.214 7.37109V12H110.945ZM120.43 12.1598C119.589 12.1598 118.864 11.9893 118.257 11.6484C117.653 11.304 117.188 10.8175 116.861 10.1889C116.535 9.55682 116.371 8.8093 116.371 7.94638C116.371 7.10476 116.535 6.36612 116.861 5.73047C117.188 5.09482 117.648 4.59943 118.241 4.24432C118.837 3.8892 119.537 3.71165 120.34 3.71165C120.879 3.71165 121.382 3.79865 121.847 3.97266C122.316 4.14311 122.724 4.40057 123.072 4.74503C123.424 5.08949 123.697 5.52273 123.892 6.04474C124.088 6.56321 124.185 7.17045 124.185 7.86648V8.4897H117.277V7.08345H122.049C122.049 6.75675 121.978 6.46733 121.836 6.2152C121.694 5.96307 121.497 5.76598 121.245 5.62393C120.997 5.47834 120.707 5.40554 120.377 5.40554C120.032 5.40554 119.727 5.48544 119.461 5.64524C119.198 5.80149 118.992 6.01278 118.843 6.27912C118.694 6.5419 118.617 6.83487 118.614 7.15803V8.49503C118.614 8.89986 118.688 9.24964 118.837 9.54439C118.99 9.83913 119.205 10.0664 119.482 10.2262C119.759 10.386 120.087 10.4659 120.467 10.4659C120.72 10.4659 120.95 10.4304 121.16 10.3594C121.369 10.2884 121.549 10.1818 121.698 10.0398C121.847 9.89773 121.961 9.72372 122.039 9.51776L124.138 9.65625C124.031 10.1605 123.813 10.6009 123.482 10.9773C123.156 11.3501 122.733 11.6413 122.215 11.8509C121.7 12.0568 121.105 12.1598 120.43 12.1598Z" fill="white"/>
</svg>
